<?xml version="1.0"?>
<svg version="1.1" xmlns="http://www.w3.org/2000/svg" width="400" height="400" style=""><path fill="#" d="M38.535,213.095c0,3.42-1.035,6.525-2.925,8.73c-1.665,1.89-4.005,3.06-6.93,3.06c-2.07,0-4.14-0.765-5.445-2.115l0,10.08c0,0.9-0.405,1.17-1.17,1.17l-3.15,0c-0.72,0-1.08-0.405-1.08-1.17l0-29.34c0-0.765,0.36-1.035,1.08-1.035l2.7,0c0.765,0,1.17,0.18,1.215,0.855l0.045,1.215c1.305-1.485,3.87-2.61,6.3-2.61c2.97,0,5.04,1.125,6.525,2.745c1.935,2.115,2.835,5.265,2.835,8.415z M32.865,213.365c0-2.115-0.405-3.96-1.305-5.22c-0.855-1.215-2.115-1.845-3.69-1.845c-1.665,0-3.735,1.08-4.635,2.205l0,9.81c0.9,1.215,2.7,2.205,4.41,2.205c1.575,0,2.835-0.72,3.6-1.665c1.125-1.395,1.62-3.285,1.62-5.49z M66.7725,223.445c0,0.54-0.36,0.855-0.9,0.855l-2.16,0c-2.34,0-3.375-1.125-3.69-2.655l-0.09,0c-1.125,1.665-4.05,3.195-6.525,3.195c-6.345,0-9.225-5.22-9.225-11.07c0-7.785,4.68-11.88,9.72-11.88c2.385,0,4.635,1.08,5.76,2.61l0.09-1.215c0.045-0.495,0.405-0.81,0.945-0.81l3.15,0c0.585,0,0.945,0.315,0.945,0.99l0,15.615c0,0.63,0.09,1.08,0.27,1.305c0.135,0.135,0.315,0.18,0.54,0.18l0.36,0c0.54,0,0.81,0.18,0.81,0.765l0,2.115z M59.3475,217.325l0-8.685c-0.9-1.305-2.745-2.295-4.455-2.295c-2.745,0-5.085,2.34-5.085,7.065c0,3.78,1.44,6.975,4.77,6.975c2.205,0,4.095-1.665,4.77-3.06z M92.76,223.175c0,0.765-0.45,1.125-0.99,1.125l-2.925,0c-0.72,0-1.035-0.36-1.08-0.9l-0.09-1.215c-1.26,1.44-3.78,2.655-6.12,2.655c-6.525,0-9.495-5.175-9.495-11.205c0-6.3,3.51-11.79,9.855-11.79c2.025,0,4.14,0.81,5.4,2.115l0-10.125c0-0.81,0.225-1.125,0.945-1.215l3.33-0.45c0.045,0,0.405-0.045,0.45-0.045c0.54,0,0.72,0.225,0.72,0.9l0,30.15z M87.315,218.18l0-9.765c-0.9-1.215-2.61-2.205-4.32-2.205c-3.645,0-5.265,3.42-5.265,7.11s1.35,7.11,4.995,7.11c1.665,0,3.69-1.125,4.59-2.25z M120.5025,223.175c0,0.765-0.45,1.125-0.99,1.125l-2.925,0c-0.72,0-1.035-0.36-1.08-0.9l-0.09-1.215c-1.26,1.44-3.78,2.655-6.12,2.655c-6.525,0-9.495-5.175-9.495-11.205c0-6.3,3.51-11.79,9.855-11.79c2.025,0,4.14,0.81,5.4,2.115l0-10.125c0-0.81,0.225-1.125,0.945-1.215l3.33-0.45c0.045,0,0.405-0.045,0.45-0.045c0.54,0,0.72,0.225,0.72,0.9l0,30.15z M115.0575,218.18l0-9.765c-0.9-1.215-2.61-2.205-4.32-2.205c-3.645,0-5.265,3.42-5.265,7.11s1.35,7.11,4.995,7.11c1.665,0,3.69-1.125,4.59-2.25z M148.56,203.105c0,0.135-0.045,0.27-0.09,0.45l-8.865,23.31c-2.025,5.355-4.545,7.245-9.945,7.245c-0.855,0-1.62-0.045-2.385-0.225c-0.495-0.09-0.675-0.36-0.675-0.765c0-0.135,0.045-0.225,0.045-0.405l0.315-2.34c0.09-0.585,0.315-0.81,0.81-0.81l0.27,0c0.54,0.045,1.08,0.135,1.53,0.135c2.79,0,3.96-0.99,4.86-3.105l0.855-2.025l-8.19-21.105c-0.045-0.135-0.09-0.225-0.09-0.36c0-0.36,0.27-0.63,0.675-0.63l4.32,0c0.63,0,0.945,0.315,1.125,0.765l4.995,14.895l4.725-14.625c0.225-0.72,0.585-1.035,1.35-1.035l3.645,0c0.45,0,0.72,0.27,0.72,0.63z M169.1925,217.865c0,4.725-4.095,6.975-8.685,6.975c-2.34,0-4.905-0.675-6.93-1.575c-0.405-0.18-0.54-0.45-0.54-0.72c0-0.135,0.045-0.27,0.09-0.405l0.72-2.295c0.135-0.45,0.36-0.63,0.63-0.63c0.135,0,0.27,0,0.495,0.09c1.98,0.81,4.095,1.395,5.67,1.395c1.98,0,3.33-0.9,3.33-2.385c0-1.26-0.855-1.935-2.7-2.655l-3.555-1.35c-2.565-0.945-4.635-2.925-4.635-5.985c0-4.41,4.14-6.435,8.145-6.435c2.16,0,4.275,0.36,6.525,1.35c0.36,0.18,0.54,0.36,0.54,0.63c0,0.135-0.045,0.27-0.09,0.45l-0.765,2.43c-0.09,0.315-0.315,0.495-0.63,0.495c-0.135,0-0.315-0.045-0.45-0.09c-1.485-0.585-3.42-1.08-4.86-1.08c-1.89,0-2.835,1.035-2.835,2.07c0,0.99,0.495,1.62,2.205,2.295l4.05,1.665c2.385,0.99,4.275,2.835,4.275,5.76z"/><path fill="#f4ac45" d="M186.365,221.87c0,1.845-1.665,3.015-3.195,3.015c-1.575,0-3.195-1.08-3.195-2.97c0-1.935,1.53-3.06,3.195-3.06c1.62,0,3.195,1.125,3.195,3.015z M207.8975,217.865c0,4.725-4.095,6.975-8.685,6.975c-2.34,0-4.905-0.675-6.93-1.575c-0.405-0.18-0.54-0.45-0.54-0.72c0-0.135,0.045-0.27,0.09-0.405l0.72-2.295c0.135-0.45,0.36-0.63,0.63-0.63c0.135,0,0.27,0,0.495,0.09c1.98,0.81,4.095,1.395,5.67,1.395c1.98,0,3.33-0.9,3.33-2.385c0-1.26-0.855-1.935-2.7-2.655l-3.555-1.35c-2.565-0.945-4.635-2.925-4.635-5.985c0-4.41,4.14-6.435,8.145-6.435c2.16,0,4.275,0.36,6.525,1.35c0.36,0.18,0.54,0.36,0.54,0.63c0,0.135-0.045,0.27-0.09,0.45l-0.765,2.43c-0.09,0.315-0.315,0.495-0.63,0.495c-0.135,0-0.315-0.045-0.45-0.09c-1.485-0.585-3.42-1.08-4.86-1.08c-1.89,0-2.835,1.035-2.835,2.07c0,0.99,0.495,1.62,2.205,2.295l4.05,1.665c2.385,0.99,4.275,2.835,4.275,5.76z M235.235,213.095c0,3.42-1.035,6.525-2.925,8.73c-1.665,1.89-4.005,3.06-6.93,3.06c-2.07,0-4.14-0.765-5.445-2.115l0,10.08c0,0.9-0.405,1.17-1.17,1.17l-3.15,0c-0.72,0-1.08-0.405-1.08-1.17l0-29.34c0-0.765,0.36-1.035,1.08-1.035l2.7,0c0.765,0,1.17,0.18,1.215,0.855l0.045,1.215c1.305-1.485,3.87-2.61,6.3-2.61c2.97,0,5.04,1.125,6.525,2.745c1.935,2.115,2.835,5.265,2.835,8.415z M229.565,213.365c0-2.115-0.405-3.96-1.305-5.22c-0.855-1.215-2.115-1.845-3.69-1.845c-1.665,0-3.735,1.08-4.635,2.205l0,9.81c0.9,1.215,2.7,2.205,4.41,2.205c1.575,0,2.835-0.72,3.6-1.665c1.125-1.395,1.62-3.285,1.62-5.49z M263.4725,223.445c0,0.54-0.36,0.855-0.9,0.855l-2.16,0c-2.34,0-3.375-1.125-3.69-2.655l-0.09,0c-1.125,1.665-4.05,3.195-6.525,3.195c-6.345,0-9.225-5.22-9.225-11.07c0-7.785,4.68-11.88,9.72-11.88c2.385,0,4.635,1.08,5.76,2.61l0.09-1.215c0.045-0.495,0.405-0.81,0.945-0.81l3.15,0c0.585,0,0.945,0.315,0.945,0.99l0,15.615c0,0.63,0.09,1.08,0.27,1.305c0.135,0.135,0.315,0.18,0.54,0.18l0.36,0c0.54,0,0.81,0.18,0.81,0.765l0,2.115z M256.0475,217.325l0-8.685c-0.9-1.305-2.745-2.295-4.455-2.295c-2.745,0-5.085,2.34-5.085,7.065c0,3.78,1.44,6.975,4.77,6.975c2.205,0,4.095-1.665,4.77-3.06z M286.49,222.77c0,0.36-0.225,0.54-0.63,0.72c-2.16,0.99-4.14,1.35-6.525,1.35c-6.93,0-10.755-4.32-10.755-11.25c0-6.975,4.185-11.7,11.16-11.7c2.025,0,4.14,0.405,6.03,1.26c0.36,0.18,0.54,0.27,0.54,0.63c0,0.135-0.045,0.405-0.09,0.54l-0.585,2.385c-0.09,0.405-0.27,0.63-0.54,0.63c-0.135,0-0.315-0.09-0.495-0.18c-1.305-0.54-2.745-0.99-4.32-0.99c-3.87,0-6.075,2.745-6.075,7.155c0,4.32,1.98,7.29,5.85,7.29c1.935,0,3.15-0.36,4.725-0.99c0.135-0.045,0.315-0.135,0.45-0.135c0.27,0,0.45,0.225,0.54,0.54l0.585,1.98c0.09,0.315,0.135,0.585,0.135,0.765z M311.9375,213.32c0,1.08-0.36,1.305-1.485,1.305l-13.185,0c0.36,3.465,2.88,5.85,6.435,5.85c1.89,0,3.87-0.45,5.535-1.08c0.18-0.045,0.315-0.135,0.495-0.135c0.315,0,0.54,0.18,0.63,0.54l0.63,2.295c0.045,0.225,0.09,0.405,0.09,0.54c0,0.315-0.18,0.54-0.72,0.765c-2.205,0.99-5.22,1.44-7.56,1.44c-7.065,0-11.25-4.5-11.25-11.52c0-6.75,4.455-11.43,11.16-11.43c2.745,0,4.995,1.035,6.57,2.7c2.07,2.16,2.655,4.995,2.655,8.055l0,0.675z M306.5825,211.07l0-0.495c-0.09-2.34-1.44-4.5-4.185-4.5c-2.925,0-4.68,2.34-5.04,4.995l9.225,0z"/></svg>
